<svg xmlns="http://www.w3.org/2000/svg" version="1.1" xmlns:xlink="http://www.w3.org/1999/xlink" xmlns:svgjs="http://svgjs.dev/svgjs" width="1920" height="1080" preserveAspectRatio="none" viewBox="0 0 1920 1080"><g mask="url(&quot;#SvgjsMask1121&quot;)" fill="none"><rect width="1920" height="1080" x="0" y="0" fill="rgba(5, 59, 80, 1)"></rect><path d="M -584.7178684257772,678 C -456.72,595.8 -200.72,275.4 55.28213157422279,267 C 311.28,258.6 439.28,612.8 695.2821315742228,636 C 951.28,659.2 1079.28,336.4 1335.2821315742228,383 C 1591.28,429.6 1858.34,900.6 1975.2821315742228,869 C 2092.23,837.4 1931.06,353.8 1920,225" stroke="rgba(255, 196, 54, 1)" stroke-width="2"></path><path d="M -38.41971820263768,846 C 89.58,745 345.58,361.6 601.5802817973623,341 C 857.58,320.4 985.58,704 1241.5802817973622,743 C 1497.58,782 1625.58,511.8 1881.5802817973622,536 C 2137.58,560.2 2513.9,887.8 2521.580281797362,864 C 2529.26,840.2 2040.32,506.4 1920,417" stroke="rgba(255, 196, 54, 1)" stroke-width="2"></path><path d="M -262.1661543956387,817 C -134.17,739.4 121.83,454.4 377.8338456043613,429 C 633.83,403.6 761.83,685.6 1017.8338456043613,690 C 1273.83,694.4 1401.83,420.2 1657.8338456043612,451 C 1913.83,481.8 2245.4,863.2 2297.833845604361,844 C 2350.27,824.8 1995.57,452.8 1920,355" stroke="rgba(255, 196, 54, 1)" stroke-width="2"></path><path d="M -467.14370965833257,386 C -339.14,434 -83.14,620 172.85629034166746,626 C 428.86,632 556.86,385.6 812.8562903416674,416 C 1068.86,446.4 1196.86,806.2 1452.8562903416675,778 C 1708.86,749.8 1999.43,273.8 2092.8562903416673,275 C 2186.29,276.2 1954.57,682.2 1920,784" stroke="rgba(255, 196, 54, 1)" stroke-width="2"></path><path d="M -1014.8846101747354,527 C -886.88,586.2 -630.88,848 -374.88461017473537,823 C -118.88,798 9.12,417.8 265.11538982526463,402 C 521.12,386.2 649.12,745.4 905.1153898252646,744 C 1161.12,742.6 1342.14,386.2 1545.1153898252646,395 C 1748.09,403.8 1845.02,709.4 1920,788" stroke="rgba(255, 196, 54, 1)" stroke-width="2"></path><path d="M -189.28655561177095,305 C -61.29,373.2 194.71,656.4 450.71344438822905,646 C 706.71,635.6 834.71,259.8 1090.7134443882292,253 C 1346.71,246.2 1474.71,558.6 1730.7134443882292,612 C 1986.71,665.4 2332.86,498 2370.713444388229,520 C 2408.57,542 2010.14,681.6 1920,722" stroke="rgba(255, 196, 54, 1)" stroke-width="2"></path><path d="M -988.6005533500484,687 C -860.6,605.2 -604.6,281.4 -348.6005533500483,278 C -92.6,274.6 35.4,681.4 291.3994466499517,670 C 547.4,658.6 675.4,207.2 931.3994466499516,221 C 1187.4,234.8 1373.68,739.2 1571.3994466499516,739 C 1769.12,738.8 1850.28,323.8 1920,220" stroke="rgba(255, 196, 54, 1)" stroke-width="2"></path></g><defs><mask id="SvgjsMask1121"><rect width="1920" height="1080" fill="#ffffff"></rect></mask></defs></svg>